<?xml version="1.0" encoding="UTF-8" standalone="no"?>
<!DOCTYPE svg PUBLIC "-//W3C//DTD SVG 1.1//EN"
 "http://www.w3.org/Graphics/SVG/1.1/DTD/svg11.dtd">
<!-- Generated by graphviz version 2.28.0 (20110507.0327)
 -->
<!-- Title: TopLevel Pages: 1 -->
<svg width="746pt" height="124pt"
 viewBox="0.00 0.00 746.00 124.00" xmlns="http://www.w3.org/2000/svg" xmlns:xlink="http://www.w3.org/1999/xlink">
<g id="graph1" class="graph" transform="scale(1 1) rotate(0) translate(4 120)">
<title>TopLevel</title>
<polygon fill="white" stroke="white" points="-4,5 -4,-120 743,-120 743,5 -4,5"/>
<!-- clientSubCompComp -->
<g id="node1" class="node"><title>clientSubCompComp</title>
<a xlink:href="TopLevel.clientSubComp.gv" xlink:title="clientSubComp | {{ &lt;entryPoint&gt; entryPoint } | | { &lt;s1&gt; s1 | &lt;s2&gt; s2 }} | ">
<polygon fill="lightgrey" stroke="lightgrey" points="302.5,-23 401.5,-23 413.5,-35 413.5,-103 401.5,-115 302.5,-115 290.5,-103 290.5,-35 302.5,-23"/>
<path fill="lightgrey" stroke="lightgrey" d="M401.5,-23C407.5,-23 413.5,-29 413.5,-35"/>
<path fill="lightgrey" stroke="lightgrey" d="M413.5,-103C413.5,-109 407.5,-115 401.5,-115"/>
<path fill="lightgrey" stroke="lightgrey" d="M302.5,-115C296.5,-115 290.5,-109 290.5,-103"/>
<path fill="lightgrey" stroke="lightgrey" d="M290.5,-35C290.5,-29 296.5,-23 302.5,-23"/>
<polyline fill="none" stroke="black" points="302.5,-23 401.5,-23 "/>
<path fill="none" stroke="black" d="M401.5,-23C407.5,-23 413.5,-29 413.5,-35"/>
<polyline fill="none" stroke="black" points="413.5,-35 413.5,-103 "/>
<path fill="none" stroke="black" d="M413.5,-103C413.5,-109 407.5,-115 401.5,-115"/>
<polyline fill="none" stroke="black" points="401.5,-115 302.5,-115 "/>
<path fill="none" stroke="black" d="M302.5,-115C296.5,-115 290.5,-109 290.5,-103"/>
<polyline fill="none" stroke="black" points="290.5,-103 290.5,-35 "/>
<path fill="none" stroke="black" d="M290.5,-35C290.5,-29 296.5,-23 302.5,-23"/>
<text text-anchor="middle" x="352" y="-99.8" font-family="Times New Roman,serif" font-size="14.00">clientSubComp</text>
<polyline fill="none" stroke="black" points="290.5,-92 413.5,-92 "/>
<text text-anchor="middle" x="327.5" y="-65.3" font-family="Times New Roman,serif" font-size="14.00">entryPoint</text>
<polyline fill="none" stroke="black" points="364.5,-46 364.5,-92 "/>
<text text-anchor="middle" x="374.5" y="-65.3" font-family="Times New Roman,serif" font-size="14.00"> </text>
<polyline fill="none" stroke="black" points="384.5,-46 384.5,-92 "/>
<text text-anchor="middle" x="399" y="-76.8" font-family="Times New Roman,serif" font-size="14.00">s1</text>
<polyline fill="none" stroke="black" points="384.5,-69 413.5,-69 "/>
<text text-anchor="middle" x="399" y="-53.8" font-family="Times New Roman,serif" font-size="14.00">s2</text>
<polyline fill="none" stroke="black" points="290.5,-46 413.5,-46 "/>
<text text-anchor="middle" x="352" y="-30.8" font-family="Times New Roman,serif" font-size="14.00"> </text>
</a>
</g>
<!-- serverSubCompComp -->
<g id="node2" class="node"><title>serverSubCompComp</title>
<a xlink:href="TopLevel.serverSubComp.gv" xlink:title="serverSubComp | {{ &lt;s1&gt; &#45;&#45; s1 | &lt;s2&gt; s2 | &lt;s3&gt; ++ s3 } | | { &#160;}} | ">
<polygon fill="lightgrey" stroke="lightgrey" stroke-width="10" points="642,-0.5 726,-0.5 738,-12.5 738,-103.5 726,-115.5 642,-115.5 630,-103.5 630,-12.5 642,-0.5"/>
<path fill="lightgrey" stroke="lightgrey" stroke-width="10" d="M726,-0.5C732,-0.5 738,-6.5 738,-12.5"/>
<path fill="lightgrey" stroke="lightgrey" stroke-width="10" d="M738,-103.5C738,-109.5 732,-115.5 726,-115.5"/>
<path fill="lightgrey" stroke="lightgrey" stroke-width="10" d="M642,-115.5C636,-115.5 630,-109.5 630,-103.5"/>
<path fill="lightgrey" stroke="lightgrey" stroke-width="10" d="M630,-12.5C630,-6.5 636,-0.5 642,-0.5"/>
<polyline fill="none" stroke="#eead0e" stroke-width="10" points="642,-0.5 726,-0.5 "/>
<path fill="none" stroke="#eead0e" stroke-width="10" d="M726,-0.5C732,-0.5 738,-6.5 738,-12.5"/>
<polyline fill="none" stroke="#eead0e" stroke-width="10" points="738,-12.5 738,-103.5 "/>
<path fill="none" stroke="#eead0e" stroke-width="10" d="M738,-103.5C738,-109.5 732,-115.5 726,-115.5"/>
<polyline fill="none" stroke="#eead0e" stroke-width="10" points="726,-115.5 642,-115.5 "/>
<path fill="none" stroke="#eead0e" stroke-width="10" d="M642,-115.5C636,-115.5 630,-109.5 630,-103.5"/>
<polyline fill="none" stroke="#eead0e" stroke-width="10" points="630,-103.5 630,-12.5 "/>
<path fill="none" stroke="#eead0e" stroke-width="10" d="M630,-12.5C630,-6.5 636,-0.5 642,-0.5"/>
<text text-anchor="middle" x="684" y="-100.3" font-family="Times New Roman,serif" font-size="14.00">serverSubComp</text>
<polyline fill="none" stroke="#eead0e" stroke-width="10" points="630,-92.5 738,-92.5 "/>
<text text-anchor="middle" x="658" y="-77.3" font-family="Times New Roman,serif" font-size="14.00">&#45;&#45; s1</text>
<polyline fill="none" stroke="#eead0e" stroke-width="10" points="630,-69.5 686,-69.5 "/>
<text text-anchor="middle" x="658" y="-54.3" font-family="Times New Roman,serif" font-size="14.00">s2</text>
<polyline fill="none" stroke="#eead0e" stroke-width="10" points="630,-46.5 686,-46.5 "/>
<text text-anchor="middle" x="658" y="-31.3" font-family="Times New Roman,serif" font-size="14.00">++ s3</text>
<polyline fill="none" stroke="#eead0e" stroke-width="10" points="686,-23.5 686,-92.5 "/>
<text text-anchor="middle" x="699" y="-54.3" font-family="Times New Roman,serif" font-size="14.00"> </text>
<polyline fill="none" stroke="#eead0e" stroke-width="10" points="712,-23.5 712,-92.5 "/>
<text text-anchor="middle" x="725" y="-54.3" font-family="Times New Roman,serif" font-size="14.00"> </text>
<polyline fill="none" stroke="#eead0e" stroke-width="10" points="630,-23.5 738,-23.5 "/>
<text text-anchor="middle" x="684" y="-8.3" font-family="Times New Roman,serif" font-size="14.00"> </text>
</a>
</g>
<!-- clientSubCompComp&#45;&gt;serverSubCompComp -->
<g id="edge4" class="edge"><title>clientSubCompComp:s1&#45;&gt;serverSubCompComp:s1</title>
<path fill="none" stroke="#e41a1c" stroke-width="10" d="M414,-81C506.531,-81 532.172,-81 619.869,-81"/>
<polygon fill="#e41a1c" stroke="#e41a1c" points="620,-89.7501 630,-81 620,-72.2501 620,-89.7501"/>
</g>
<!-- clientSubCompComp&#45;&gt;serverSubCompComp -->
<g id="edge6" class="edge"><title>clientSubCompComp:s2&#45;&gt;serverSubCompComp:s2</title>
<path fill="none" stroke="#999999" stroke-width="4" d="M414,-57C506.532,-57 532.171,-57.929 619.869,-57.9962"/>
<polygon fill="#999999" stroke="#999999" points="619.999,-61.4961 630,-58 620.001,-54.4961 619.999,-61.4961"/>
</g>
<!-- clientSubCompComp&#45;&gt;serverSubCompComp -->
<g id="edge8" class="edge"><title>clientSubCompComp:s1&#45;&gt;serverSubCompComp:s3</title>
<path fill="none" stroke="#4daf4a" stroke-width="10" d="M414,-81C508.702,-81 530.365,-38.1775 619.932,-35.1666"/>
<polygon fill="#4daf4a" stroke="#4daf4a" points="620.146,-43.9143 630,-35 619.857,-26.4167 620.146,-43.9143"/>
</g>
<!-- SrventryPoint -->
<g id="node3" class="node"><title>SrventryPoint</title>
<a xlink:href="f:\SeyvozentryPointivraisons-m4se\mind4se-compiler-0.1-SNAPSHOT-201408081444\runtime\boot\Main.itf" xlink:title="entryPoint">
<polygon fill="#ee2c2c" stroke="black" stroke-width="2" points="0,-33 0,-105 74,-105 74,-33 0,-33"/>
<text text-anchor="middle" x="37" y="-65.3" font-family="Times New Roman,serif" font-size="14.00">entryPoint</text>
</a>
</g>
<!-- SrventryPoint&#45;&gt;clientSubCompComp -->
<g id="edge2" class="edge"><title>SrventryPoint&#45;&gt;clientSubCompComp:entryPoint</title>
<path fill="none" stroke="#999999" stroke-width="4" d="M74.3062,-69C121.078,-69 205.221,-69 279.578,-69"/>
<polygon fill="#999999" stroke="#999999" points="280,-72.5001 290,-69 280,-65.5001 280,-72.5001"/>
</g>
</g>
</svg>
